<svg xmlns="http://www.w3.org/2000/svg" width="12.444" height="9.399" viewBox="0 0 12.444 9.399">
  <g id="Sp9fUT3h8m" transform="translate(0 -55.09)">
    <g id="Group_3" data-name="Group 3" transform="translate(7.349 55.09)">
      <g id="Group_2" data-name="Group 2" transform="translate(0 0)">
        <path id="Path_6" data-name="Path 6" d="M360.123,115.633l-3.847-4.076a.624.624,0,1,0-.907.856l3.443,3.647-3.443,3.648a.624.624,0,0,0,.907.857l3.847-4.076A.624.624,0,0,0,360.123,115.633Z" transform="translate(-355.198 -111.361)" fill="#fff"/>
      </g>
    </g>
    <g id="Group_5" data-name="Group 5" transform="translate(0.001 55.09)">
      <g id="Group_4" data-name="Group 4">
        <path id="Path_7" data-name="Path 7" d="M4.925,119.707l-3.443-3.648,3.443-3.648a.624.624,0,1,0-.907-.856L.171,115.631a.624.624,0,0,0,0,.857l3.847,4.076a.624.624,0,0,0,.907-.857Z" transform="translate(-0.001 -111.359)" fill="#fff"/>
      </g>
    </g>
  </g>
</svg>
