<svg xmlns="http://www.w3.org/2000/svg" width="4.25" height="5.333" viewBox="0 0 4.25 5.333">
  <g id="_67Q8nrKFUR" data-name="67Q8nrKFUR" transform="translate(-52)">
    <g id="Group_26" data-name="Group 26" transform="translate(52)">
      <g id="Group_25" data-name="Group 25" transform="translate(0)">
        <path id="Path_9" data-name="Path 9" d="M55.625,1.958h-.375V1.1A1.125,1.125,0,0,0,53,1.1v.856h-.375A.626.626,0,0,0,52,2.583V4.708a.626.626,0,0,0,.625.625h3a.626.626,0,0,0,.625-.625V2.583A.626.626,0,0,0,55.625,1.958ZM53.416,1.1a.709.709,0,0,1,1.417,0v.856H53.416Zm2.417,3.606a.209.209,0,0,1-.208.208h-3a.209.209,0,0,1-.208-.208V2.583a.209.209,0,0,1,.208-.208h3a.209.209,0,0,1,.208.208Z" transform="translate(-52)" fill="#3c4347"/>
      </g>
    </g>
    <g id="Group_28" data-name="Group 28" transform="translate(53.739 2.979)">
      <g id="Group_27" data-name="Group 27">
        <path id="Path_10" data-name="Path 10" d="M219.385,286a.385.385,0,0,0-.209.709v.457a.208.208,0,0,0,.417,0v-.457a.385.385,0,0,0-.208-.71Z" transform="translate(-219 -286)" fill="#3c4347"/>
      </g>
    </g>
  </g>
</svg>
