<svg xmlns="http://www.w3.org/2000/svg" width="11.036" height="11.036" viewBox="0 0 11.036 11.036">
  <g id="MgLHSwmxHS" transform="translate(0 0)">
    <g id="Solid" transform="translate(0)">
      <path id="Path_4" data-name="Path 4" d="M143.81,32.585a.571.571,0,0,0,.807,0l2.153-2.153a.571.571,0,0,0-.807-.807L144.785,30.8V24.571a.571.571,0,0,0-1.142,0V30.8l-1.178-1.178a.571.571,0,1,0-.807.807Z" transform="translate(-138.696 -24)" fill="#fff"/>
      <path id="Path_5" data-name="Path 5" d="M34.465,232a.571.571,0,0,0-.571.571v4.376H25.142v-4.376a.571.571,0,0,0-1.142,0v4.567a.951.951,0,0,0,.951.951h9.133a.951.951,0,0,0,.951-.951v-4.567A.571.571,0,0,0,34.465,232Z" transform="translate(-24 -227.053)" fill="#fff"/>
    </g>
  </g>
</svg>