<svg xmlns="http://www.w3.org/2000/svg" width="4.25" height="5.333" viewBox="0 0 4.25 5.333">
  <g id="_8kT0XqMYwb" data-name="8kT0XqMYwb" transform="translate(-52 0)">
    <g id="Group_30" data-name="Group 30" transform="translate(52 0)">
      <g id="Group_29" data-name="Group 29">
        <path id="Path_11" data-name="Path 11" d="M55.625,1.958H53.416V1.1a.709.709,0,0,1,1.417,0v.4h.417V1.1A1.125,1.125,0,0,0,53,1.1v.856h-.375A.626.626,0,0,0,52,2.583V4.708a.626.626,0,0,0,.625.625h3a.626.626,0,0,0,.625-.625V2.583A.626.626,0,0,0,55.625,1.958Zm.208,2.75a.209.209,0,0,1-.208.208h-3a.209.209,0,0,1-.208-.208V2.583a.209.209,0,0,1,.208-.208h3a.209.209,0,0,1,.208.208Z" transform="translate(-52 0)" fill="#3c4347"/>
      </g>
    </g>
    <g id="Group_32" data-name="Group 32" transform="translate(53.739 2.979)">
      <g id="Group_31" data-name="Group 31">
        <path id="Path_12" data-name="Path 12" d="M219.385,286a.385.385,0,0,0-.209.709v.457a.208.208,0,0,0,.417,0v-.457a.385.385,0,0,0-.208-.71Z" transform="translate(-219 -286)" fill="#3c4347"/>
      </g>
    </g>
  </g>
</svg>
